<?xml version="1.0" encoding="utf-8"?>
<svg width="211px" height="82px" viewBox="0 0 211 82" version="1.1" xmlns:xlink="http://www.w3.org/1999/xlink" xmlns="http://www.w3.org/2000/svg">
  <defs>
    <path d="M0 0L176 0L176 82L0 82L0 0Z" id="path_1" />
    <clipPath id="clip_1">
      <use xlink:href="#path_1" clip-rule="evenodd" fill-rule="evenodd" transform="translate(0, 9)" />
    </clipPath>
  </defs>
  <g id="Group">
    <path d="M35 9L0 9L0 72L35 72L35 9ZM25.9717 19.5731L12.085 19.5731L12.085 21.6141L8.78418 21.6141L8.78418 14.0946L12.085 14.0946L12.085 16.1356L25.9717 16.1356L25.9717 19.5731ZM8.78418 29.2801L8.78418 22.4051L12.1045 22.4051L12.1045 25.784L15.4541 25.784L15.4541 22.5418L18.6865 22.5418L18.6865 25.784L22.6221 25.784L22.6221 22.1805L25.9717 22.1805L25.9717 29.2801L8.78418 29.2801ZM25.9717 35.8817L25.9717 39.241L8.78418 39.241L8.78418 35.7059L17.0166 34.1238L8.78418 34.1238L8.78418 30.8035L25.9717 30.8035L25.9717 34.1629L17.3779 35.8817L25.9717 35.8817ZM25.9717 46.077L25.9717 49.4168L8.78418 47.7567L8.78418 41.9266L25.9717 40.2957L25.9717 43.5477L23.1982 43.7918L23.1982 45.8621L25.9717 46.077ZM20.4541 45.618L20.4541 44.0555L11.7139 44.8074L11.7139 44.9637L20.4541 45.618ZM25.9717 49.9246L25.9717 56.8973L8.78418 56.8973L8.78418 53.4598L23.042 53.4598L23.042 49.9246L25.9717 49.9246ZM25.9717 62.9617L25.9717 66.3406L8.78418 66.3406L8.78418 61.7996Q8.78418 60.3738 9.41895 59.5389Q10.0537 58.7039 11.2256 58.3426Q12.3975 57.9813 14.0186 57.9813Q15.5811 57.9813 16.7383 58.284Q17.8955 58.5867 18.5303 59.3631Q19.165 60.1395 19.165 61.5653L19.165 62.9617L25.9717 62.9617ZM16.0791 62.9617L16.0791 62.7664Q16.0791 61.8094 15.542 61.5946Q15.0049 61.3797 13.96 61.3797Q12.9834 61.3797 12.4512 61.5897Q11.9189 61.7996 11.9189 62.5809L11.9189 62.9617L16.0791 62.9617Z" id="Rectangle-Subtract" fill="#127475" fill-rule="evenodd" stroke="none" />
    <g id="UPLIFT" clip-path="url(#clip_1)" transform="translate(35 -9)">
      <g transform="translate(2.8867188, 23.695312)" id="UPLIFT" fill="#CCB47B">
        <path d="M17.0508 85.2539Q9.31641 85.2539 5.66016 80.9121Q2.00391 76.5703 2.00391 68.1328L2.00391 22.8164L14.0273 22.8164L14.0273 67.6406Q14.0273 69.1875 14.2031 70.6113Q14.3789 72.0352 15.0117 72.9492Q15.6445 73.8633 17.0508 73.8633Q18.4922 73.8633 19.125 72.9668Q19.7578 72.0703 19.916 70.6289Q20.0742 69.1875 20.0742 67.6406L20.0742 22.8164L32.0977 22.8164L32.0977 68.1328Q32.0977 76.5703 28.4414 80.9121Q24.7852 85.2539 17.0508 85.2539ZM36.8438 84.6914L36.8438 22.8164L53.1914 22.8164Q58.3242 22.8164 61.3301 25.1016Q64.3359 27.3867 65.6367 31.6055Q66.9375 35.8242 66.9375 41.6602Q66.9375 47.2852 65.8477 51.4512Q64.7578 55.6172 61.9629 57.9023Q59.168 60.1875 54.0352 60.1875L49.0078 60.1875L49.0078 84.6914L36.8438 84.6914ZM49.0078 49.0781L49.7109 49.0781Q53.1563 49.0781 53.9297 47.1445Q54.7031 45.2109 54.7031 41.4492Q54.7031 37.9336 53.9473 36.0176Q53.1914 34.1016 50.3789 34.1016L49.0078 34.1016L49.0078 49.0781ZM70.8398 84.6914L70.8398 22.8164L83.2148 22.8164L83.2148 74.1445L95.9414 74.1445L95.9414 84.6914L70.8398 84.6914ZM98.8945 84.6914L98.8945 22.8164L110.848 22.8164L110.848 84.6914L98.8945 84.6914ZM115.77 84.6914L115.77 22.8164L140.52 22.8164L140.52 34.875L128.215 34.875L128.215 44.7188L139.887 44.7188L139.887 56.6367L128.215 56.6367L128.215 84.6914L115.77 84.6914ZM149.801 84.6914L149.801 34.6992L142.453 34.6992L142.453 22.8164L169.523 22.8164L169.523 34.6992L162.176 34.6992L162.176 84.6914L149.801 84.6914Z" />
      </g>
    </g>
  </g>
</svg>