<?xml version="1.0" encoding="utf-8"?>
<svg width="209px" height="80px" viewBox="0 0 209 80" version="1.1" xmlns:xlink="http://www.w3.org/1999/xlink" xmlns="http://www.w3.org/2000/svg">
  <defs>
    <path d="M0 0L178.318 0L178.318 80L0 80L0 0Z" id="path_1" />
    <clipPath id="clip_1">
      <use xlink:href="#path_1" clip-rule="evenodd" fill-rule="evenodd" transform="translate(0, 14.193359)" />
    </clipPath>
  </defs>
  <g id="Group">
    <g id="UPLIFT" clip-path="url(#clip_1)" transform="translate(30.682617 -14.193359)">
      <g transform="translate(4.0455933, 23.695312)" id="UPLIFT" fill="#127475">
        <path d="M17.0508 85.2539Q9.31641 85.2539 5.66016 80.9121Q2.00391 76.5703 2.00391 68.1328L2.00391 22.8164L14.0273 22.8164L14.0273 67.6406Q14.0273 69.1875 14.2031 70.6113Q14.3789 72.0352 15.0117 72.9492Q15.6445 73.8633 17.0508 73.8633Q18.4922 73.8633 19.125 72.9668Q19.7578 72.0703 19.916 70.6289Q20.0742 69.1875 20.0742 67.6406L20.0742 22.8164L32.0977 22.8164L32.0977 68.1328Q32.0977 76.5703 28.4414 80.9121Q24.7852 85.2539 17.0508 85.2539ZM36.8438 84.6914L36.8438 22.8164L53.1914 22.8164Q58.3242 22.8164 61.3301 25.1016Q64.3359 27.3867 65.6367 31.6055Q66.9375 35.8242 66.9375 41.6602Q66.9375 47.2852 65.8477 51.4512Q64.7578 55.6172 61.9629 57.9023Q59.168 60.1875 54.0352 60.1875L49.0078 60.1875L49.0078 84.6914L36.8438 84.6914ZM49.0078 49.0781L49.7109 49.0781Q53.1563 49.0781 53.9297 47.1445Q54.7031 45.2109 54.7031 41.4492Q54.7031 37.9336 53.9473 36.0176Q53.1914 34.1016 50.3789 34.1016L49.0078 34.1016L49.0078 49.0781ZM70.8398 84.6914L70.8398 22.8164L83.2148 22.8164L83.2148 74.1445L95.9414 74.1445L95.9414 84.6914L70.8398 84.6914ZM98.8945 84.6914L98.8945 22.8164L110.848 22.8164L110.848 84.6914L98.8945 84.6914ZM115.77 84.6914L115.77 22.8164L140.52 22.8164L140.52 34.875L128.215 34.875L128.215 44.7188L139.887 44.7188L139.887 56.6367L128.215 56.6367L128.215 84.6914L115.77 84.6914ZM149.801 84.6914L149.801 34.6992L142.453 34.6992L142.453 22.8164L169.523 22.8164L169.523 34.6992L162.176 34.6992L162.176 84.6914L149.801 84.6914Z" />
      </g>
    </g>
    <path d="M31 9L0 9L0 71L31 71L31 9ZM23.9722 19.0727L10.0854 19.0727L10.0854 21.1137L6.78466 21.1137L6.78466 13.5941L10.0854 13.5941L10.0854 15.6352L23.9722 15.6352L23.9722 19.0727ZM6.78466 28.7797L6.78466 21.9047L10.105 21.9047L10.105 25.2836L13.4546 25.2836L13.4546 22.0414L16.687 22.0414L16.687 25.2836L20.6225 25.2836L20.6225 21.6801L23.9722 21.6801L23.9722 28.7797L6.78466 28.7797ZM23.9722 35.3812L23.9722 38.7406L6.78466 38.7406L6.78466 35.2055L15.0171 33.6234L6.78466 33.6234L6.78466 30.3031L23.9722 30.3031L23.9722 33.6625L15.3784 35.3812L23.9722 35.3812ZM23.9722 45.5766L23.9722 48.9164L6.78466 47.2562L6.78466 41.4262L23.9722 39.7953L23.9722 43.0473L21.1987 43.2914L21.1987 45.3617L23.9722 45.5766ZM18.4546 45.1176L18.4546 43.5551L9.71434 44.307L9.71434 44.4633L18.4546 45.1176ZM23.9722 49.4242L23.9722 56.3969L6.78466 56.3969L6.78466 52.9594L21.0425 52.9594L21.0425 49.4242L23.9722 49.4242ZM23.9722 62.4613L23.9722 65.8402L6.78466 65.8402L6.78466 61.2992Q6.78466 59.8734 7.41942 59.0385Q8.05419 58.2035 9.22606 57.8422Q10.3979 57.4809 12.019 57.4809Q13.5815 57.4809 14.7388 57.7836Q15.896 58.0863 16.5308 58.8627Q17.1655 59.6391 17.1655 61.0648L17.1655 62.4613L23.9722 62.4613ZM14.0796 62.4613L14.0796 62.266Q14.0796 61.309 13.5425 61.0941Q13.0054 60.8793 11.9604 60.8793Q10.9839 60.8793 10.4516 61.0893Q9.91942 61.2992 9.91942 62.0805L9.91942 62.4613L14.0796 62.4613Z" id="Shape" fill="#127475" fill-rule="evenodd" stroke="none" />
  </g>
</svg>